<svg xmlns="http://www.w3.org/2000/svg" viewBox="0 0 300 300"><defs><style>.a{fill:none;}.b,.c{fill:#fff;}.c{stroke:#fff;stroke-miterlimit:10;stroke-width:11px;}</style></defs><path class="a" d="M127.1,162.9c-3.1-2.3-6.4-4.3-10.4-4.7h-2.8c-5.1-.4-10.1-1.4-15.3-.7A29.4,29.4,0,0,0,86,162.3a15.3,15.3,0,0,0-4.4,5c-2,3.3-2.3,7.1-2.1,10.7v3.8c.1,5,2.9,8.7,6.5,11.5s6.5,3.8,9.9,5.4a14.1,14.1,0,0,0,4.5,1.1c5.5.8,10.2-2.1,15.2-3.5s7.3-3.3,11.1-4.9,6.1-6,6.9-10.5-1.5-6.9-2.3-10.4A13.7,13.7,0,0,0,127.1,162.9Z"/><path class="a" d="M162.4,206.8a28.6,28.6,0,0,0-9.1-14.4c-1.8-1.5-3.7-1.9-5.4-.4a32.9,32.9,0,0,0-5.4,5.8,34.8,34.8,0,0,0-3.6,6.9c-1.4,3.4-2.8,6.8-3.9,10.3a7.9,7.9,0,0,0,1,7,19.6,19.6,0,0,0,5,4c2.7,1.6,5.5.9,7.6-1.6l1.5-1.8,1.7,1.6c2.9,3,4,3.3,7.7,1.6s4.6-2.8,5.4-5.4a13.1,13.1,0,0,0-.4-8.3C163.9,210.3,163,208.6,162.4,206.8Z"/><path class="b" d="M240.8,100.2c-.2-5.3-1.4-10.6-2.4-15.8a55.9,55.9,0,0,0-3-9c-1.6-4-3.4-8-6.7-10.9a126.5,126.5,0,0,0-11.6-9.2c-5.8-4-11.8-8-17.9-11.5s-10.9-5.6-16.5-8.1a61.6,61.6,0,0,0-10.9-3.9,130.4,130.4,0,0,0-15.2-2.6,57.2,57.2,0,0,0-11.7-.3A80.1,80.1,0,0,0,133,31a102.8,102.8,0,0,0-13.4,3.9,139,139,0,0,0-16,7.8c-5.8,3.2-11.5,6.6-17,10.3a142.5,142.5,0,0,0-13,9.8c-4.8,4-7.7,9.4-9.5,15.3a21.8,21.8,0,0,1-.9,2.3l-4.4,24.4c.6,5.2.4,10.6.5,15.9.2,9.4.3,18.8.5,28.3a26,26,0,0,0,.6,5.6c1.4,5.7,2.9,11.4,4.4,17.1.3,1.3.5,2.6.8,3.9h.5a6,6,0,0,0,.8-2.1c.4-3.5.4-7,.9-10.5a28.3,28.3,0,0,1,2.1-8.2c1-2,3.1-3.5,4.6-5.2s4.3-3.4,4.7-6.4c0-.4.8-.8,1.3-.9s1.1.3,1,.4a11.1,11.1,0,0,1-.5,3.7,13.3,13.3,0,0,1-2.3,3c-1.2,1.5-2.4,3-3.5,4.6a7.9,7.9,0,0,0-1.4,2.3c-.5,2.2-.6,4.5-1.3,6.7-2.1,7.1-1.3,14.5-2.1,21.8-.3,2.4-.6,4.7-2.2,6.6s-2.4,3.1-3.4,4.7-1.7,2.6-1.5,3.7a52.8,52.8,0,0,0,2.4,7.7,76.7,76.7,0,0,0,7.7,15.1c1.7,2.4,3.5,4.6,6.6,4.7a23.2,23.2,0,0,0,5.9-.5,7.7,7.7,0,0,1,6.9,1.2c3.9,3,7.8,6,11.6,9.1a3.9,3.9,0,0,1,1.5,2.3,15.4,15.4,0,0,1-.4,5.7c-1.2,3.6-1.1,6.8.8,10a23.3,23.3,0,0,1,1.9,3.9c1.5,4.5,4.3,4.8,8,4.2a3,3,0,0,1,3.5,1.2c1.9,2.3,4.3,2.7,6.6,1.2,3.9-2.5,4.3-1.1,5,1.6.1.1,0,.3.1.4.9,1.9,2.6,2.6,4,1.7s3.1-1.5,5.4.6a4.8,4.8,0,0,0,3.1,1.3,14.3,14.3,0,0,0,4.3-1.7,3.2,3.2,0,0,1,4.2.2,5.7,5.7,0,0,0,7.6-.3,3.2,3.2,0,0,1,4.3-.6c2.1,1.3,3.4.9,4.5-1.3a5.2,5.2,0,0,0,.7-2.1,1.4,1.4,0,0,1,1.9-1.3,5.9,5.9,0,0,1,2.2,1.2c1.8,1.5,5.4,1.7,6.6-.3s3-2.1,5.1-1.6a4.9,4.9,0,0,0,5.6-2.1c1.6-3.2,3.2-6.4,4.5-9.7a8.9,8.9,0,0,0,0-4.3c-.1-1.3-.8-2.5-1-3.8s-.8-4.6,1.3-6.3c3.9-3.2,8-6.2,12-9.3a6.7,6.7,0,0,1,6.1-1.3,25.5,25.5,0,0,0,6.1.8c3,.1,5.1-1.5,6.5-4a26.8,26.8,0,0,0,1.8-2.8,86.2,86.2,0,0,0,4.4-7.8c1.5-3.5,2.3-7.3,3.9-10.7s.6-4.7-1.2-6.7-5.5-7.4-5.4-12.3a72.2,72.2,0,0,0-1.1-15.4c-.9-3.8-1.2-7.7-2.1-11.6-.3-1.3-1.6-2.4-2.5-3.6a64.1,64.1,0,0,0-3.9-5.2c-2.1-2.2-2.3-2.7-1.1-5.4.1-.3.4-.5.6-.8l.6.7c.6,1.4.9,3.1,1.8,4.2,2,2.7,4.4,5,6.5,7.6a17.2,17.2,0,0,1,2.6,4.8c1.2,3.5,1.1,7.2,1.3,10.9.1,2.2-.1,4.7,1.8,6.8a8.8,8.8,0,0,0,.7-1.3c.9-3.4,1.7-6.9,2.7-10.2,2.7-8.2,3.3-16.7,3.4-25.2C241.3,126.4,241.2,113.3,240.8,100.2ZM133.6,180.9c-.8,4.5-2.2,8.6-6.9,10.5s-7.3,3.7-11.1,4.9-9.7,4.3-15.2,3.5a14.1,14.1,0,0,1-4.5-1.1c-3.4-1.6-7-3.1-9.9-5.4s-6.4-6.5-6.5-11.5V178c-.2-3.6.1-7.4,2.1-10.7a15.3,15.3,0,0,1,4.4-5,29.4,29.4,0,0,1,12.6-4.9c5.2-.7,10.2.3,15.3.7h2.8c4,.4,7.3,2.4,10.4,4.7a13.7,13.7,0,0,1,4.2,7.6C132.1,174,134.3,177.2,133.6,180.9Zm31.3,39.5c-.8,2.6-2.9,4.3-5.4,5.4s-4.8,1.4-7.7-1.6l-1.7-1.6-1.5,1.8c-2.1,2.5-4.9,3.2-7.6,1.6a19.6,19.6,0,0,1-5-4,7.9,7.9,0,0,1-1-7c1.1-3.5,2.5-6.9,3.9-10.3a34.8,34.8,0,0,1,3.6-6.9,32.9,32.9,0,0,1,5.4-5.8c1.7-1.5,3.6-1.1,5.4.4a28.6,28.6,0,0,1,9.1,14.4c.6,1.8,1.5,3.5,2.1,5.3A13.1,13.1,0,0,1,164.9,220.4ZM162.8,128V109.5H112.4v-5.1h23.4V84.7h5.1v19.7h47.5v5.1H167.9V128Zm57.9,47.3c.1,1,0,2.1,0,3.2.3,4-.2,7.9-2.7,11.2a22,22,0,0,1-9.7,7.3,36.5,36.5,0,0,0-4.1,1.8c-3.2,1.7-6.7,1.5-10,.6a149.6,149.6,0,0,1-15.1-5.3c-3.1-1.3-6.4-2.9-8.7-5.3a12.1,12.1,0,0,1-3-12.7,37.7,37.7,0,0,0,1.8-5.7c1.2-7.2,9.9-12.1,15.8-12.2s9.1-1.1,13.6-1a25.4,25.4,0,0,1,18.2,7.5C219.6,167.6,220.4,171.4,220.7,175.3Z"/><path class="c" d="M198.6,157.2c-4.5-.1-9,.9-13.6,1s-14.6,5-15.8,12.2a37.7,37.7,0,0,1-1.8,5.7,12.1,12.1,0,0,0,3,12.7c2.3,2.4,5.6,4,8.7,5.3a149.6,149.6,0,0,0,15.1,5.3c3.3.9,6.8,1.1,10-.6a36.5,36.5,0,0,1,4.1-1.8,22,22,0,0,0,9.7-7.3c2.5-3.3,3-7.2,2.7-11.2,0-1.1.1-2.2,0-3.2-.3-3.9-1.1-7.7-3.9-10.6A25.4,25.4,0,0,0,198.6,157.2Z"/></svg>
